<svg xmlns="http://www.w3.org/2000/svg" width="512" height="512" viewBox="0 0 512 512">
  <g fill="none" fill-rule="evenodd">
    <rect width="512" height="512" fill="#DE7303"/>
    <path fill="#FFF" d="M343.388672,149.982422 L211.417969,149.982422 L211.417969,220.998047 L332.933594,220.998047 C341.876347,220.998047 348.550434,223.003561 352.956055,227.014648 C357.361676,231.025736 359.564453,236.318978 359.564453,242.894531 C359.564453,249.470085 357.394553,254.829081 353.054688,258.97168 C348.714822,263.114279 342.007858,265.185547 332.933594,265.185547 L211.417969,265.185547 L211.417969,347.445312 L347.925781,347.445312 C357.131556,347.445312 364.068662,349.582335 368.737305,353.856445 C373.405948,358.130555 375.740234,363.818324 375.740234,370.919922 C375.740234,377.758498 373.405948,383.314757 368.737305,387.588867 C364.068662,391.862977 357.131556,394 347.925781,394 L188.732422,394 C175.975848,394 166.803088,391.172554 161.213867,385.517578 C155.624647,379.862602 152.830078,370.722719 152.830078,358.097656 L152.830078,140.710938 C152.830078,132.294229 154.079415,125.422878 156.578125,120.09668 C159.076835,114.770481 162.989231,110.890963 168.31543,108.458008 C173.641628,106.025053 180.447224,104.808594 188.732422,104.808594 L343.388672,104.808594 C352.725958,104.808594 359.663063,106.879862 364.200195,111.022461 C368.737327,115.16506 371.005859,120.58981 371.005859,127.296875 C371.005859,134.135451 368.737327,139.625956 364.200195,143.768555 C359.663063,147.911154 352.725958,149.982422 343.388672,149.982422 Z"/>
  </g>
</svg>
